<?xml version="1.0" standalone="no"?>
<!DOCTYPE svg PUBLIC "-//W3C//DTD SVG 20010904//EN"
 "http://www.w3.org/TR/2001/REC-SVG-20010904/DTD/svg10.dtd">
<svg version="1.0" xmlns="http://www.w3.org/2000/svg"
 width="800.000000pt" height="770.000000pt" viewBox="0 0 800.000000 770.000000"
 preserveAspectRatio="xMidYMid meet">

<g transform="translate(0.000000,770.000000) scale(0.100000,-0.100000)"
fill="#000000" stroke="none">
<path d="M7969 7693 c-8 -22 -455 -478 -685 -697 -304 -291 -939 -856 -963
-856 -3 0 -55 46 -116 101 -406 373 -931 654 -1465 783 -569 137 -1149 150
-1674 36 -831 -180 -1634 -718 -2169 -1452 -345 -474 -543 -988 -619 -1608
-20 -164 -17 -700 5 -875 51 -402 148 -749 293 -1054 39 -82 61 -138 55 -145
-260 -336 -324 -427 -450 -640 -96 -162 -144 -267 -167 -362 -51 -218 66 -314
346 -284 211 22 549 113 854 229 88 34 163 61 168 61 5 0 48 -32 96 -71 404
-327 867 -574 1328 -709 808 -236 1649 -190 2418 132 210 87 362 169 561 301
1085 720 1698 1908 1625 3145 -13 211 -46 455 -86 627 -15 66 -28 131 -28 145
1 14 41 113 91 220 331 714 513 1356 589 2075 27 248 21 972 -7 898z m-122
-531 c-25 -713 -179 -1371 -517 -2212 -115 -286 -100 -270 -140 -153 -48 141
-141 364 -150 361 -5 -2 -81 -84 -171 -183 -204 -226 -838 -860 -1068 -1069
-1024 -929 -2201 -1749 -3381 -2358 l-165 -85 -37 21 c-96 56 -268 217 -268
250 0 6 37 33 82 60 345 205 939 591 1288 836 1128 792 2040 1627 2778 2542
113 140 346 452 429 574 54 80 55 82 40 111 -9 16 -45 61 -81 100 -36 39 -66
75 -66 80 0 4 51 51 113 104 628 536 736 631 977 860 91 87 203 200 250 253
47 52 87 95 89 96 2 0 1 -85 -2 -188z m-3563 -187 c629 -75 1198 -332 1719
-777 130 -111 387 -358 387 -372 0 -19 -374 -536 -387 -536 -3 0 -84 76 -179
170 -530 516 -994 764 -1606 856 -144 21 -533 30 -699 14 -357 -32 -661 -119
-977 -279 -671 -342 -1190 -959 -1406 -1674 -121 -399 -147 -842 -75 -1272
197 -1184 1121 -2096 2305 -2275 181 -28 528 -38 714 -21 652 60 1201 318
1680 791 358 354 635 876 750 1415 36 169 50 292 57 481 9 266 -19 510 -83
737 -17 60 -22 93 -15 105 5 9 98 113 208 231 309 336 311 337 323 325 14 -14
104 -272 140 -403 84 -306 114 -537 114 -891 0 -349 -26 -557 -109 -875 -206
-790 -676 -1490 -1300 -1937 -738 -528 -1602 -738 -2508 -607 -595 85 -1139
317 -1627 694 -147 114 -469 436 -584 585 -479 618 -716 1305 -716 2072 0 398
58 754 183 1124 177 522 458 976 841 1359 532 531 1179 843 1970 950 269 37
622 41 880 10z m-44 -814 c266 -43 457 -103 685 -215 160 -79 336 -191 475
-303 97 -78 309 -281 413 -396 l71 -79 -17 -31 c-33 -61 -122 -172 -200 -249
-43 -43 -82 -78 -86 -78 -4 0 -30 33 -58 73 -28 39 -101 125 -162 189 -61 65
-111 122 -111 127 0 6 14 34 31 63 56 94 140 270 136 282 -13 31 -895 485
-917 471 -12 -7 -106 -174 -156 -277 -28 -56 -43 -77 -54 -73 -69 21 -227 38
-404 43 l-209 7 -34 100 c-19 55 -45 140 -58 189 -13 49 -26 91 -29 93 -9 10
-319 -81 -651 -191 l-340 -113 2 -34 c1 -19 24 -104 52 -189 l50 -155 -47 -48
c-48 -50 -123 -114 -320 -275 l-113 -93 -27 19 c-34 25 -270 148 -298 156 -19
6 -31 -9 -103 -136 -84 -146 -391 -754 -391 -773 0 -6 81 -53 180 -105 156
-82 180 -98 175 -115 -21 -78 -38 -240 -44 -409 l-6 -199 -80 -22 c-44 -12
-131 -37 -193 -56 l-113 -34 5 -37 c14 -88 288 -943 309 -964 6 -7 160 34 281
76 49 16 90 29 91 27 1 -1 23 -43 49 -94 45 -88 124 -202 159 -232 10 -7 17
-17 17 -21 0 -9 -129 -91 -250 -160 -41 -23 -89 -51 -106 -61 l-31 -19 -94
135 c-146 210 -223 337 -304 500 -118 239 -179 430 -222 690 -26 159 -26 619
1 790 161 1046 883 1864 1891 2140 127 35 306 68 455 84 145 16 556 6 700 -18z
m-175 -1307 c345 -59 641 -260 862 -581 l53 -77 -87 -89 c-377 -380 -942 -841
-1677 -1366 l-198 -142 -35 24 c-308 220 -481 617 -443 1022 56 610 490 1107
1056 1209 109 20 356 20 469 0z m2314 -764 c34 -210 44 -360 38 -575 -4 -110
-13 -245 -21 -300 -88 -595 -343 -1111 -748 -1514 -400 -399 -898 -645 -1483
-733 -140 -21 -599 -18 -743 5 -285 46 -555 133 -777 251 -94 50 -245 145
-245 154 0 4 24 20 54 35 l54 29 104 -60 c125 -72 338 -185 433 -231 l69 -33
17 20 c9 12 56 96 105 188 l89 166 35 -6 c19 -3 73 -12 120 -21 47 -8 173 -18
280 -22 l195 -6 53 -166 c28 -91 54 -178 58 -193 3 -16 7 -28 8 -28 13 0 312
92 623 192 l383 123 -6 35 c-3 19 -29 103 -57 187 -45 134 -49 154 -36 169 8
10 88 77 179 149 91 72 188 157 216 189 l52 57 180 -90 181 -90 64 112 c35 61
126 232 200 379 75 147 157 304 182 349 31 53 43 85 37 91 -6 6 -86 49 -179
97 -137 70 -168 90 -166 106 1 11 10 65 18 120 9 55 19 189 22 297 l6 197 186
63 c217 74 203 48 136 233 l-44 120 47 47 c25 27 49 45 53 40 4 -4 17 -63 28
-132z m-1430 -1151 c-57 -115 -112 -190 -210 -285 -174 -167 -386 -277 -656
-338 -35 -8 -63 -11 -63 -8 0 8 149 117 400 292 222 156 378 273 482 361 45
38 83 67 85 65 3 -2 -15 -42 -38 -87z m-4213 -1176 c13 -16 31 -40 39 -55 15
-27 14 -30 -29 -82 -69 -86 -124 -170 -164 -254 -32 -67 -37 -87 -37 -149 0
-62 3 -75 24 -97 32 -34 82 -49 150 -44 62 4 131 34 275 120 l89 52 88 -94
c49 -52 87 -99 86 -104 -4 -12 -267 -115 -462 -181 -203 -68 -346 -104 -455
-111 -74 -6 -93 -4 -133 14 -33 15 -48 28 -53 47 -25 99 74 285 390 730 70 99
135 192 144 208 9 15 18 27 20 27 1 0 14 -12 28 -27z m194 -298 c27 -41 50
-78 50 -84 0 -15 -121 -107 -177 -136 -104 -52 -154 -19 -100 66 21 34 170
229 174 229 1 0 25 -34 53 -75z"/>
</g>
</svg>
